# xmcd
#
# Track frame offsets: 
#        150
#        46003
#        66013
#        81539
#        100793
#        118449
#        140389
#        160178
#        187804
#        202647
#        216526
#
# Disc length: 3255 seconds
#
# Revision: 0
# Processed by: cddbd v1.5.2PL0 Copyright (c) Steve Scherf et al.
# Submitted via: ExactAudioCopy v1.0b3
#
DISCID=970cb50b
DTITLE=Van McCoy - Rhythms Of The World
DYEAR=1976
DGENRE=Disco
TTITLE0=Rhythms Of The World
TTITLE1=That's The Joint
TTITLE2=Soul Cha Cha
TTITLE3=The Shuffle
TTITLE4=Oriental Boogie
TTITLE5=Indian Warpath
TTITLE6=Swahili Boogie
TTITLE7=Rhythms Of The World (Part 2)
TTITLE8=That's The Joint (Radio Version)
TTITLE9=The Shuffle (Radio Version)
TTITLE10=Reggae Boogie
EXTD=
EXTT0=
EXTT1=
EXTT2=
EXTT3=
EXTT4=
EXTT5=
EXTT6=
EXTT7=
EXTT8=
EXTT9=
EXTT10=
PLAYORDER=
